<?xml version="1.0" encoding="UTF-8"?>
<!--
  Placeholder QR code for the App Store link.
  TODO: replace with a real QR generated from the production App Store URL
  once it is locked. Encode at error-correction level M, 25×25 grid minimum.
-->
<svg xmlns="http://www.w3.org/2000/svg" viewBox="0 0 25 25" shape-rendering="crispEdges" role="img" aria-label="QR code to download Libo on the App Store">
  <rect width="25" height="25" fill="#ffffff"/>
  <g fill="#0a0a0a">
    <!-- Finder pattern: top-left -->
    <rect x="1" y="1" width="7" height="1"/>
    <rect x="1" y="7" width="7" height="1"/>
    <rect x="1" y="1" width="1" height="7"/>
    <rect x="7" y="1" width="1" height="7"/>
    <rect x="3" y="3" width="3" height="3"/>
    <!-- Finder pattern: top-right -->
    <rect x="17" y="1" width="7" height="1"/>
    <rect x="17" y="7" width="7" height="1"/>
    <rect x="17" y="1" width="1" height="7"/>
    <rect x="23" y="1" width="1" height="7"/>
    <rect x="19" y="3" width="3" height="3"/>
    <!-- Finder pattern: bottom-left -->
    <rect x="1" y="17" width="7" height="1"/>
    <rect x="1" y="23" width="7" height="1"/>
    <rect x="1" y="17" width="1" height="7"/>
    <rect x="7" y="17" width="1" height="7"/>
    <rect x="3" y="19" width="3" height="3"/>
    <!-- Timing patterns -->
    <rect x="9" y="6" width="1" height="1"/>
    <rect x="11" y="6" width="1" height="1"/>
    <rect x="13" y="6" width="1" height="1"/>
    <rect x="15" y="6" width="1" height="1"/>
    <rect x="6" y="9" width="1" height="1"/>
    <rect x="6" y="11" width="1" height="1"/>
    <rect x="6" y="13" width="1" height="1"/>
    <rect x="6" y="15" width="1" height="1"/>
    <!-- Alignment block -->
    <rect x="16" y="16" width="5" height="1"/>
    <rect x="16" y="20" width="5" height="1"/>
    <rect x="16" y="16" width="1" height="5"/>
    <rect x="20" y="16" width="1" height="5"/>
    <rect x="18" y="18" width="1" height="1"/>
    <!-- Random data fill (visual placeholder only) -->
    <rect x="10" y="9" width="1" height="1"/>
    <rect x="12" y="9" width="1" height="1"/>
    <rect x="14" y="9" width="1" height="1"/>
    <rect x="9" y="10" width="1" height="1"/>
    <rect x="11" y="10" width="1" height="1"/>
    <rect x="13" y="10" width="1" height="1"/>
    <rect x="15" y="10" width="1" height="1"/>
    <rect x="10" y="11" width="1" height="1"/>
    <rect x="12" y="11" width="1" height="1"/>
    <rect x="14" y="11" width="1" height="1"/>
    <rect x="9" y="12" width="1" height="1"/>
    <rect x="11" y="12" width="1" height="1"/>
    <rect x="13" y="12" width="1" height="1"/>
    <rect x="15" y="12" width="1" height="1"/>
    <rect x="10" y="13" width="1" height="1"/>
    <rect x="12" y="13" width="1" height="1"/>
    <rect x="14" y="13" width="1" height="1"/>
    <rect x="9" y="14" width="1" height="1"/>
    <rect x="11" y="14" width="1" height="1"/>
    <rect x="13" y="14" width="1" height="1"/>
    <rect x="15" y="14" width="1" height="1"/>
    <rect x="10" y="15" width="1" height="1"/>
    <rect x="12" y="15" width="1" height="1"/>
    <rect x="14" y="15" width="1" height="1"/>
    <rect x="9" y="17" width="1" height="1"/>
    <rect x="11" y="17" width="1" height="1"/>
    <rect x="13" y="17" width="1" height="1"/>
    <rect x="9" y="19" width="1" height="1"/>
    <rect x="11" y="19" width="1" height="1"/>
    <rect x="13" y="19" width="1" height="1"/>
    <rect x="9" y="21" width="1" height="1"/>
    <rect x="11" y="21" width="1" height="1"/>
    <rect x="13" y="21" width="1" height="1"/>
    <rect x="9" y="23" width="1" height="1"/>
    <rect x="12" y="23" width="1" height="1"/>
    <rect x="22" y="9" width="1" height="1"/>
    <rect x="22" y="11" width="1" height="1"/>
    <rect x="22" y="13" width="1" height="1"/>
    <rect x="22" y="15" width="1" height="1"/>
    <rect x="22" y="22" width="1" height="1"/>
  </g>
</svg>
